<mxfile host="app.diagrams.net" modified="2021-07-11T12:09:51.260Z" agent="5.0 (Macintosh; Intel Mac OS X 10_15_6) AppleWebKit/605.1.15 (KHTML, like Gecko) Version/14.0.3 Safari/605.1.15" etag="Rf-gv1xPKcCLquN0D75F" version="14.6.11" type="github">
  <diagram id="pi1cCUhO7VG1k4C5hIC9" name="第 1 页">
    <mxGraphModel dx="946" dy="443" grid="1" gridSize="10" guides="1" tooltips="1" connect="1" arrows="1" fold="1" page="1" pageScale="1" pageWidth="827" pageHeight="1169" math="0" shadow="0">
      <root>
        <mxCell id="0" />
        <mxCell id="1" parent="0" />
        <mxCell id="Wkjq778UQ_b-5MghlP0O-6" style="edgeStyle=orthogonalEdgeStyle;rounded=0;orthogonalLoop=1;jettySize=auto;html=1;fontSize=16;exitX=0.5;exitY=1;exitDx=0;exitDy=0;curved=1;" edge="1" parent="1" source="Wkjq778UQ_b-5MghlP0O-1" target="Wkjq778UQ_b-5MghlP0O-3">
          <mxGeometry relative="1" as="geometry" />
        </mxCell>
        <mxCell id="Wkjq778UQ_b-5MghlP0O-7" style="edgeStyle=orthogonalEdgeStyle;curved=1;rounded=0;orthogonalLoop=1;jettySize=auto;html=1;fontSize=16;" edge="1" parent="1" source="Wkjq778UQ_b-5MghlP0O-1" target="Wkjq778UQ_b-5MghlP0O-4">
          <mxGeometry relative="1" as="geometry" />
        </mxCell>
        <mxCell id="Wkjq778UQ_b-5MghlP0O-8" style="edgeStyle=orthogonalEdgeStyle;curved=1;rounded=0;orthogonalLoop=1;jettySize=auto;html=1;fontSize=16;exitX=0.5;exitY=1;exitDx=0;exitDy=0;" edge="1" parent="1" source="Wkjq778UQ_b-5MghlP0O-1" target="Wkjq778UQ_b-5MghlP0O-5">
          <mxGeometry relative="1" as="geometry" />
        </mxCell>
        <mxCell id="Wkjq778UQ_b-5MghlP0O-1" value="分发线程" style="ellipse;whiteSpace=wrap;html=1;fontSize=16;fillColor=#dae8fc;strokeColor=#6c8ebf;" vertex="1" parent="1">
          <mxGeometry x="400" y="200" width="120" height="80" as="geometry" />
        </mxCell>
        <mxCell id="Wkjq778UQ_b-5MghlP0O-3" value="工作线程A" style="rounded=1;whiteSpace=wrap;html=1;fontSize=16;fillColor=#ffe6cc;strokeColor=#d79b00;" vertex="1" parent="1">
          <mxGeometry x="240" y="420" width="120" height="60" as="geometry" />
        </mxCell>
        <mxCell id="Wkjq778UQ_b-5MghlP0O-4" value="工作线程B" style="rounded=1;whiteSpace=wrap;html=1;fontSize=16;fillColor=#ffe6cc;strokeColor=#d79b00;" vertex="1" parent="1">
          <mxGeometry x="400" y="420" width="120" height="60" as="geometry" />
        </mxCell>
        <mxCell id="Wkjq778UQ_b-5MghlP0O-5" value="工作线程C" style="rounded=1;whiteSpace=wrap;html=1;fontSize=16;fillColor=#ffe6cc;strokeColor=#d79b00;" vertex="1" parent="1">
          <mxGeometry x="560" y="420" width="120" height="60" as="geometry" />
        </mxCell>
        <mxCell id="Wkjq778UQ_b-5MghlP0O-9" value="根据主机IP地址做哈希运算后，&lt;br&gt;将心跳包分发到不同的工作线程" style="text;html=1;align=center;verticalAlign=middle;resizable=0;points=[];autosize=1;strokeColor=none;fontSize=16;" vertex="1" parent="1">
          <mxGeometry x="180" y="290" width="240" height="40" as="geometry" />
        </mxCell>
      </root>
    </mxGraphModel>
  </diagram>
</mxfile>
